<?xml version="1.0" encoding="iso-8859-1"?>
<!-- Uploaded to: SVG Repo, www.svgrepo.com, Generator: SVG Repo Mixer Tools -->
<svg fill="#000000" height="800px" width="800px" version="1.1" id="Layer_1" xmlns="http://www.w3.org/2000/svg" xmlns:xlink="http://www.w3.org/1999/xlink" 
	 viewBox="0 0 512 512" xml:space="preserve">
<g>
	<g>
		<path d="M256,0C114.843,0,0,114.843,0,256c0,141.157,114.843,256,256,256s256-114.843,256-256C512,114.843,397.157,0,256,0z
			 M256,493.037C125.296,493.037,18.963,386.704,18.963,256C18.963,125.296,125.296,18.963,256,18.963S493.037,125.296,493.037,256
			C493.037,386.704,386.704,493.037,256,493.037z"/>
	</g>
</g>
<g>
	<g>
		<path d="M417.88,404.801c-8.06-26.165-21.873-49.189-39.782-67.925c-0.431-0.801-0.94-1.571-1.616-2.247
			c-0.648-0.647-1.382-1.14-2.143-1.561c-31.076-30.514-73.482-48.624-119.588-48.624c-71.584,0-136.083,45.19-160.482,112.454
			c-1.778,4.921,0.759,10.361,5.685,12.144c4.917,1.801,10.361-0.759,12.148-5.681c5.917-16.314,14.505-31.152,25.134-44.126
			l36.208,36.21c1.815,1.815,4.241,2.778,6.704,2.778c1.222,0,2.454-0.236,3.63-0.722c3.546-1.468,5.852-4.926,5.852-8.76v-70.543
			c19.963-9.521,42.123-14.791,65.12-14.791c20.484,0,40.141,4.034,58.139,11.438v73.896c0,3.833,2.306,7.292,5.852,8.76
			c1.176,0.486,2.407,0.722,3.63,0.722c2.463,0,4.889-0.963,6.704-2.778l40.139-40.14c13.581,15.631,24.116,34.23,30.537,55.08
			c1.259,4.074,5.009,6.694,9.065,6.694c0.926,0,1.861-0.139,2.787-0.426C416.611,415.111,419.417,409.806,417.88,404.801z
			 M170.667,365.852l-20.528-20.528c6.361-6.042,13.241-11.503,20.528-16.36V365.852z M331.852,365.852v-41.59
			c8.581,5.038,16.634,10.913,24.049,17.541L331.852,365.852z"/>
	</g>
</g>
<g>
	<g>
		<path d="M205.815,211.37l-37.926-37.926c-3.704-3.704-9.704-3.704-13.407,0c-3.704,3.704-3.704,9.704,0,13.408l37.926,37.926
			c1.852,1.852,4.278,2.778,6.704,2.778c2.426,0,4.852-0.926,6.704-2.778C209.518,221.074,209.518,215.074,205.815,211.37z"/>
	</g>
</g>
<g>
	<g>
		<path d="M357.518,173.445c-3.704-3.704-9.704-3.704-13.407,0l-37.926,37.926c-3.704,3.704-3.704,9.704,0,13.408
			c1.852,1.852,4.278,2.778,6.704,2.778c2.426,0,4.852-0.926,6.704-2.778l37.926-37.926
			C361.222,183.148,361.222,177.148,357.518,173.445z"/>
	</g>
</g>
</svg>